<svg id="affordable-icon" xmlns="http://www.w3.org/2000/svg" width="65.5" height="58.8" viewBox="0 0 65.5 58.8">
  <path id="Path_31" data-name="Path 31" d="M73.507,46.465A4.835,4.835,0,1,0,78.341,51.3,4.835,4.835,0,0,0,73.507,46.465Zm0,8.933a4.1,4.1,0,1,1,4.1-4.1A4.1,4.1,0,0,1,73.507,55.4Z" transform="translate(-22.18 -19.667)" fill="#022abd"/>
  <path id="Path_32" data-name="Path 32" d="M70.632,10.052H8.1a2.6,2.6,0,0,0-2.6,2.6v53.6a2.6,2.6,0,0,0,2.6,2.6H70.632A.368.368,0,0,0,71,68.484V10.42a.368.368,0,0,0-.368-.368ZM8.1,10.788H70.264v3.73H8.1a1.865,1.865,0,1,1,0-3.73Zm0,57.328a1.867,1.867,0,0,1-1.865-1.865v-.722a.361.361,0,0,0,.391-.571,1.844,1.844,0,0,1-.391-1.143V16.8a.361.361,0,0,0,.391-.571,1.844,1.844,0,0,1-.391-1.143v-.63a2.59,2.59,0,0,0,1.865.795H70.264v17.13h-1.7v-1.1a.368.368,0,1,0-.736,0v1.1H55.989a8.473,8.473,0,0,0-8.463,8.463v1.675a8.473,8.473,0,0,0,8.463,8.463H67.828v1.1a.368.368,0,1,0,.736,0v-1.1h1.7v17.13ZM70.264,50.25H55.989a7.736,7.736,0,0,1-7.728-7.728V40.848a7.736,7.736,0,0,1,7.728-7.728H70.264Z" transform="translate(-5.5 -10.052)" fill="#022abd"/>
  <path id="Path_33" data-name="Path 33" d="M10.006,13.822H69.288a.368.368,0,1,0,0-.736H10.006a.368.368,0,1,0,0,.736Z" transform="translate(-6.593 -10.853)" fill="#022abd"/>
  <path id="Path_34" data-name="Path 34" d="M19.531,85.638H16.893a.368.368,0,1,0,0,.736h2.638a.368.368,0,1,0,0-.736Z" transform="translate(-8.411 -30.01)" fill="#022abd"/>
  <path id="Path_35" data-name="Path 35" d="M12.364,85.638H9.727a.368.368,0,1,0,0,.736h2.637a.368.368,0,1,0,0-.736Z" transform="translate(-6.519 -30.01)" fill="#022abd"/>
  <path id="Path_36" data-name="Path 36" d="M26.7,85.638H24.06a.368.368,0,1,0,0,.736H26.7a.368.368,0,1,0,0-.736Z" transform="translate(-10.304 -30.01)" fill="#022abd"/>
  <path id="Path_37" data-name="Path 37" d="M33.864,85.638H31.226a.368.368,0,1,0,0,.736h2.638a.368.368,0,1,0,0-.736Z" transform="translate(-12.196 -30.01)" fill="#022abd"/>
  <path id="Path_38" data-name="Path 38" d="M84.029,85.638H81.392a.368.368,0,0,0,0,.736h2.637a.368.368,0,0,0,0-.736Z" transform="translate(-25.442 -30.01)" fill="#022abd"/>
  <path id="Path_39" data-name="Path 39" d="M76.863,85.638H74.225a.368.368,0,1,0,0,.736h2.638a.368.368,0,1,0,0-.736Z" transform="translate(-23.549 -30.01)" fill="#022abd"/>
  <path id="Path_40" data-name="Path 40" d="M62.53,85.638H59.892a.368.368,0,1,0,0,.736H62.53a.368.368,0,1,0,0-.736Z" transform="translate(-19.765 -30.01)" fill="#022abd"/>
  <path id="Path_41" data-name="Path 41" d="M48.2,85.638H45.559a.368.368,0,1,0,0,.736H48.2a.368.368,0,1,0,0-.736Z" transform="translate(-15.98 -30.01)" fill="#022abd"/>
  <path id="Path_42" data-name="Path 42" d="M69.7,85.638H67.059a.368.368,0,0,0,0,.736H69.7a.368.368,0,1,0,0-.736Z" transform="translate(-21.657 -30.01)" fill="#022abd"/>
  <path id="Path_43" data-name="Path 43" d="M55.363,85.638H52.726a.368.368,0,1,0,0,.736h2.637a.368.368,0,1,0,0-.736Z" transform="translate(-17.873 -30.01)" fill="#022abd"/>
  <path id="Path_44" data-name="Path 44" d="M41.03,85.638H38.393a.368.368,0,1,0,0,.736H41.03a.368.368,0,1,0,0-.736Z" transform="translate(-14.088 -30.01)" fill="#022abd"/>
  <path id="Path_45" data-name="Path 45" d="M90.029,83.638a.368.368,0,0,0-.368.368v1.1h-1.1a.368.368,0,1,0,0,.736h1.472a.368.368,0,0,0,.368-.368V84.006a.368.368,0,0,0-.368-.368Z" transform="translate(-27.334 -29.482)" fill="#022abd"/>
  <path id="Path_46" data-name="Path 46" d="M90.557,70.065a.368.368,0,0,0-.368.368v2.5a.368.368,0,0,0,.736,0v-2.5a.368.368,0,0,0-.368-.368Z" transform="translate(-27.862 -25.898)" fill="#022abd"/>
  <path id="Path_47" data-name="Path 47" d="M90.557,76.852a.368.368,0,0,0-.368.368v2.5a.368.368,0,0,0,.736,0v-2.5a.368.368,0,0,0-.368-.368Z" transform="translate(-27.862 -27.69)" fill="#022abd"/>
  <path id="Path_48" data-name="Path 48" d="M12.364,19.431H9.727a.368.368,0,1,0,0,.736h2.637a.368.368,0,1,0,0-.736Z" transform="translate(-6.519 -12.528)" fill="#022abd"/>
  <path id="Path_49" data-name="Path 49" d="M19.531,19.431H16.893a.368.368,0,0,0,0,.736h2.638a.368.368,0,1,0,0-.736Z" transform="translate(-8.411 -12.528)" fill="#022abd"/>
  <path id="Path_50" data-name="Path 50" d="M55.363,19.431H52.726a.368.368,0,1,0,0,.736h2.637a.368.368,0,1,0,0-.736Z" transform="translate(-17.873 -12.528)" fill="#022abd"/>
  <path id="Path_51" data-name="Path 51" d="M26.7,19.431H24.06a.368.368,0,1,0,0,.736H26.7a.368.368,0,1,0,0-.736Z" transform="translate(-10.304 -12.528)" fill="#022abd"/>
  <path id="Path_52" data-name="Path 52" d="M33.864,19.431H31.226a.368.368,0,1,0,0,.736h2.638a.368.368,0,1,0,0-.736Z" transform="translate(-12.196 -12.528)" fill="#022abd"/>
  <path id="Path_53" data-name="Path 53" d="M41.03,19.431H38.393a.368.368,0,1,0,0,.736H41.03a.368.368,0,1,0,0-.736Z" transform="translate(-14.088 -12.528)" fill="#022abd"/>
  <path id="Path_54" data-name="Path 54" d="M48.2,19.431H45.559a.368.368,0,1,0,0,.736H48.2a.368.368,0,1,0,0-.736Z" transform="translate(-15.98 -12.528)" fill="#022abd"/>
  <path id="Path_55" data-name="Path 55" d="M81.392,20.167h2.637a.368.368,0,0,0,0-.736H81.392a.368.368,0,0,0,0,.736Z" transform="translate(-25.442 -12.528)" fill="#022abd"/>
  <path id="Path_56" data-name="Path 56" d="M74.225,20.167h2.638a.368.368,0,1,0,0-.736H74.225a.368.368,0,1,0,0,.736Z" transform="translate(-23.549 -12.528)" fill="#022abd"/>
  <path id="Path_57" data-name="Path 57" d="M59.892,20.167H62.53a.368.368,0,1,0,0-.736H59.892a.368.368,0,1,0,0,.736Z" transform="translate(-19.765 -12.528)" fill="#022abd"/>
  <path id="Path_58" data-name="Path 58" d="M67.059,20.167H69.7a.368.368,0,1,0,0-.736H67.059a.368.368,0,0,0,0,.736Z" transform="translate(-21.657 -12.528)" fill="#022abd"/>
  <path id="Path_59" data-name="Path 59" d="M88.557,20.167h1.1v1.1a.368.368,0,1,0,.736,0V19.8a.368.368,0,0,0-.368-.368H88.557a.368.368,0,1,0,0,.736Z" transform="translate(-27.334 -12.528)" fill="#022abd"/>
  <path id="Path_60" data-name="Path 60" d="M90.557,31.61a.368.368,0,0,0-.368.368v2.5a.368.368,0,1,0,.736,0v-2.5a.368.368,0,0,0-.368-.368Z" transform="translate(-27.862 -15.744)" fill="#022abd"/>
  <path id="Path_61" data-name="Path 61" d="M90.557,24.824a.368.368,0,0,0-.368.368v2.5a.368.368,0,1,0,.736,0v-2.5a.368.368,0,0,0-.368-.368Z" transform="translate(-27.862 -13.952)" fill="#022abd"/>
</svg>
