<svg xmlns="http://www.w3.org/2000/svg" width="59.924" height="70.909" viewBox="0 0 59.924 70.909">
  <g id="design-icon" transform="translate(168.529 175.5)">
    <g id="Group_36" data-name="Group 36" transform="translate(-148.835 -173.422)">
      <path id="Path_21" data-name="Path 21" d="M-133.264-167.579c-3.552,0-10.269-.352-10.269-1.687v-1.908c0-1.335,6.717-1.688,10.269-1.688S-123-172.51-123-171.174v1.908C-123-167.931-129.712-167.579-133.264-167.579Zm0-4.81c-6.3,0-9.678.782-9.8,1.219v1.9c.12.433,3.5,1.215,9.8,1.215s9.676-.782,9.8-1.219v-1.9C-123.587-171.608-126.962-172.389-133.264-172.389Z" transform="translate(143.533 172.862)" fill="#022abd"/>
    </g>
    <g id="Group_37" data-name="Group 37" transform="translate(-166.856 -161.689)">
      <path id="Path_22" data-name="Path 22" d="M-138.116-154.465c-13.714,0-28.289-1.146-28.289-3.269a.236.236,0,0,1,.236-.236.236.236,0,0,1,.236.236c0,1.143,9.906,2.8,27.817,2.8,17.234,0,27.817-1.629,27.817-2.8a.236.236,0,0,1,.236-.236.236.236,0,0,1,.236.236C-109.827-155.61-124.4-154.465-138.116-154.465Z" transform="translate(166.405 157.97)" fill="#022abd"/>
    </g>
    <g id="Group_39" data-name="Group 39" transform="translate(-166.856 -150.697)">
      <g id="Group_38" data-name="Group 38" transform="translate(0 0)">
        <path id="Path_23" data-name="Path 23" d="M-138.209-141.066a192.819,192.819,0,0,1-20.486-.96,34.139,34.139,0,0,1-7.558-1.46.237.237,0,0,1-.136-.306.238.238,0,0,1,.306-.136,33.781,33.781,0,0,0,7.441,1.43,192.245,192.245,0,0,0,20.434.957,192.239,192.239,0,0,0,20.434-.957,31.85,31.85,0,0,0,7.621-1.5.237.237,0,0,1,.31.127.237.237,0,0,1-.127.31,32.2,32.2,0,0,1-7.75,1.538A192.617,192.617,0,0,1-138.209-141.066Z" transform="translate(166.405 144.019)" fill="#022abd"/>
      </g>
    </g>
    <g id="Group_41" data-name="Group 41" transform="translate(-167.459 -142.709)">
      <g id="Group_40" data-name="Group 40" transform="translate(0 0)">
        <path id="Path_24" data-name="Path 24" d="M-138.262-130.087a159.409,159.409,0,0,1-20.46-1.16c-4.243-.58-7.051-1.32-8.346-2.2a.237.237,0,0,1-.062-.329.236.236,0,0,1,.329-.062c1.233.84,3.972,1.554,8.143,2.124a158.854,158.854,0,0,0,20.4,1.156,158.823,158.823,0,0,0,20.395-1.156c4.142-.566,6.871-1.274,8.112-2.1a.235.235,0,0,1,.328.065.236.236,0,0,1-.065.328c-1.3.869-4.1,1.6-8.311,2.178A159.534,159.534,0,0,1-138.262-130.087Z" transform="translate(167.171 133.88)" fill="#022abd"/>
      </g>
    </g>
    <g id="Group_43" data-name="Group 43" transform="translate(-167.603 -134.595)">
      <g id="Group_42" data-name="Group 42">
        <path id="Path_25" data-name="Path 25" d="M-138.5-118.9a136.988,136.988,0,0,1-20.419-1.346c-4.346-.691-7.077-1.532-8.349-2.568a.236.236,0,0,1-.034-.332.236.236,0,0,1,.332-.034c1.19.969,3.923,1.8,8.125,2.468a136.515,136.515,0,0,0,20.344,1.34,136.523,136.523,0,0,0,20.344-1.34c4.663-.741,7.509-1.68,8.458-2.788a.238.238,0,0,1,.333-.026.238.238,0,0,1,.026.333c-1.038,1.213-3.9,2.177-8.743,2.947A136.855,136.855,0,0,1-138.5-118.9Z" transform="translate(167.353 123.581)" fill="#022abd"/>
      </g>
    </g>
    <g id="Group_45" data-name="Group 45" transform="translate(-167.475 -126.893)">
      <g id="Group_44" data-name="Group 44">
        <path id="Path_26" data-name="Path 26" d="M-138.374-108.1c-11.88,0-25.377-1.585-28.753-5.127a.236.236,0,0,1,.008-.334.236.236,0,0,1,.334.008c3.279,3.441,16.631,4.981,28.41,4.981a104.844,104.844,0,0,0,20.312-1.75c4.4-.913,7.178-2.056,8.267-3.4a.236.236,0,0,1,.332-.035.236.236,0,0,1,.035.332c-1.16,1.429-4.032,2.628-8.537,3.564A105.326,105.326,0,0,1-138.374-108.1Z" transform="translate(167.192 113.806)" fill="#022abd"/>
      </g>
    </g>
    <g id="Group_47" data-name="Group 47" transform="translate(-167.731 -118.667)">
      <g id="Group_46" data-name="Group 46">
        <path id="Path_27" data-name="Path 27" d="M-138.5-96.739c-11.624,0-25.646-1.825-28.963-5.831a.235.235,0,0,1,.032-.332.235.235,0,0,1,.332.032c2.257,2.726,12.169,5.66,28.6,5.66,12.512,0,26.447-2.075,28.872-6.041a.235.235,0,0,1,.325-.079.236.236,0,0,1,.079.325C-111.856-98.7-126.243-96.739-138.5-96.739Z" transform="translate(167.516 103.365)" fill="#022abd"/>
      </g>
    </g>
    <g id="Group_48" data-name="Group 48" transform="translate(-148.835 -173.422)">
      <path id="Path_28" data-name="Path 28" d="M-133.264-169.488c-3.552,0-10.269-.352-10.269-1.688s6.717-1.688,10.269-1.688,10.268.352,10.268,1.688S-129.712-169.488-133.264-169.488Zm0-2.9c-6.3,0-9.678.782-9.8,1.219.12.429,3.5,1.211,9.8,1.211s9.676-.782,9.8-1.219C-123.587-171.609-126.962-172.389-133.264-172.389Z" transform="translate(143.533 172.863)" fill="#022abd"/>
    </g>
    <g id="Group_49" data-name="Group 49" transform="translate(-168.529 -173.581)">
      <path id="Path_29" data-name="Path 29" d="M-138.474-104.074c-13.79,0-28.446-2.178-28.446-6.213v-6.046a3.506,3.506,0,0,1-1.5-2.679,3.542,3.542,0,0,1,1.5-2.713v-3.3a3.079,3.079,0,0,1-1.368-2.372,3.086,3.086,0,0,1,1.368-2.413v-2.813a2.514,2.514,0,0,1-1.447-2.116,2.513,2.513,0,0,1,1.447-2.122v-4.252c-1.537-.8-1.537-1.607-1.537-2.007,0-.8.5-1.461,1.537-2.008V-149.4c-1.479-.634-1.609-1.3-1.609-1.873,0-1,.856-1.545,1.609-1.873v-7.479a.4.4,0,0,1,.012-.1c-.007-.078-.012-.147-.012-.215,0-3.846,7.024-7.2,17.927-8.584v-1.7c0-1.756,8.686-1.845,10.427-1.845s10.425.089,10.425,1.845v1.674c11.016,1.367,18.114,4.733,18.114,8.608a1.988,1.988,0,0,1-.013.217.347.347,0,0,1,.013.095v7.566c.956.463,1.422,1.049,1.422,1.787,0,.548-.115,1.179-1.422,1.788v4.455a2.227,2.227,0,0,1,1.35,1.91c0,.6-.169,1.247-1.35,1.909v4.48a2.44,2.44,0,0,1,1.261,1.993,2.4,2.4,0,0,1-1.261,2v3.094a2.982,2.982,0,0,1,1.18,2.252,2.985,2.985,0,0,1-1.18,2.244v3.583a3.43,3.43,0,0,1,1.314,2.554,3.389,3.389,0,0,1-1.314,2.512v6.213C-110.027-106.252-124.684-104.074-138.474-104.074Zm-27.658-56.45v7.643a.392.392,0,0,1-.25.366c-1.2.475-1.359.914-1.359,1.243,0,.3,0,.715,1.358,1.24a.4.4,0,0,1,.251.367v4.781a.394.394,0,0,1-.224.355c-1.178.566-1.313,1.076-1.313,1.411,0,.295,0,.788,1.311,1.406a.394.394,0,0,1,.226.356v4.722a.4.4,0,0,1-.2.344c-.839.474-1.247.982-1.247,1.554,0,.361.129.914,1.248,1.548a.393.393,0,0,1,.2.343v3.233a.393.393,0,0,1-.161.317,2.424,2.424,0,0,0-1.208,1.9,2.463,2.463,0,0,0,1.21,1.863.394.394,0,0,1,.158.315v3.68a.4.4,0,0,1-.152.311,2.908,2.908,0,0,0-1.349,2.213,2.881,2.881,0,0,0,1.349,2.178.4.4,0,0,1,.152.311v6.236c0,2.566,11.359,5.425,27.658,5.425s27.659-2.859,27.659-5.425v-6.393a.392.392,0,0,1,.14-.3,2.749,2.749,0,0,0,1.175-2.031,2.777,2.777,0,0,0-1.175-2.074.393.393,0,0,1-.14-.3v-3.946a.4.4,0,0,1,.145-.306,2.34,2.34,0,0,0,1.035-1.755,2.3,2.3,0,0,0-1.034-1.762.4.4,0,0,1-.146-.306v-3.492a.4.4,0,0,1,.188-.336c.963-.593,1.074-1.109,1.074-1.446,0-.522-.351-.994-1.075-1.444a.4.4,0,0,1-.186-.335v-4.929a.392.392,0,0,1,.215-.351c1.135-.58,1.135-1.027,1.135-1.322,0-.314-.118-.794-1.139-1.328a.394.394,0,0,1-.212-.349v-4.945a.393.393,0,0,1,.242-.363c1.18-.493,1.18-.867,1.18-1.168,0-.285-.123-.716-1.183-1.171a.393.393,0,0,1-.239-.362v-7.7a.349.349,0,0,1-.024-.161,2.58,2.58,0,0,0,.024-.272c0-3.437-7.14-6.6-17.767-7.868a.394.394,0,0,1-.347-.392v-1.969c-.442-.462-4.049-1.112-9.637-1.112s-9.2.649-9.639,1.112v1.992a.393.393,0,0,1-.346.391c-10.516,1.282-17.581,4.434-17.581,7.845a2.224,2.224,0,0,0,.017.23A.454.454,0,0,1-166.132-160.524Z" transform="translate(168.529 173.064)" fill="#022abd"/>
    </g>
    <g id="Group_50" data-name="Group 50" transform="translate(-142.69 -175.5)">
      <path id="Path_30" data-name="Path 30" d="M-128.4-171.432a.394.394,0,0,1-.394-.394V-174.6a.111.111,0,0,0-.111-.111h-5.931a.109.109,0,0,0-.11.111v2.775a.394.394,0,0,1-.394.394.394.394,0,0,1-.394-.394V-174.6a.9.9,0,0,1,.9-.9h5.931a.9.9,0,0,1,.9.9v2.775A.394.394,0,0,1-128.4-171.432Z" transform="translate(135.733 175.5)" fill="#022abd"/>
    </g>
  </g>
</svg>
