<svg id="service-icon" xmlns="http://www.w3.org/2000/svg" width="73.797" height="73.797" viewBox="0 0 73.797 73.797">
  <path id="Path_62" data-name="Path 62" d="M45.807,23.2C33.72,22.877,23.553,33.117,23.2,45.781a21.1,21.1,0,0,0,6.66,15.9A24.192,24.192,0,0,0,45.781,68.39h.026A22.977,22.977,0,0,0,68.39,45.807a21.1,21.1,0,0,0-6.66-15.9A24.2,24.2,0,0,0,45.807,23.2ZM67.478,45.781a22.076,22.076,0,0,1-21.685,21.7,23.281,23.281,0,0,1-15.3-6.452,20.2,20.2,0,0,1-6.381-15.22c.334-11.969,9.8-21.706,21.107-21.706q.282,0,.565.008A23.275,23.275,0,0,1,61.1,30.562,20.2,20.2,0,0,1,67.478,45.781Z" transform="translate(-8.895 -8.895)" fill="#022abd"/>
  <path id="Path_63" data-name="Path 63" d="M80.842,35.658H73.9a30.659,30.659,0,0,0-2.459-5.938l4.91-4.911a.456.456,0,0,0,0-.644L64.633,12.448a.456.456,0,0,0-.644,0l-4.91,4.909A30.551,30.551,0,0,0,53.141,14.9V7.956a.456.456,0,0,0-.456-.456H36.113a.456.456,0,0,0-.456.456V14.9a30.631,30.631,0,0,0-5.939,2.46l-4.91-4.909a.456.456,0,0,0-.644,0L12.448,24.165a.456.456,0,0,0,0,.644l4.909,4.91a30.664,30.664,0,0,0-2.46,5.939H7.956a.456.456,0,0,0-.456.456V52.686a.456.456,0,0,0,.456.456H14.9a30.59,30.59,0,0,0,2.459,5.937l-4.909,4.909a.456.456,0,0,0,0,.644L24.165,76.35a.456.456,0,0,0,.644,0L29.72,71.44a30.649,30.649,0,0,0,5.938,2.46v6.942a.456.456,0,0,0,.456.456H52.686a.456.456,0,0,0,.456-.456V73.9a30.592,30.592,0,0,0,5.937-2.459l4.909,4.911a.456.456,0,0,0,.644,0L76.348,64.632a.456.456,0,0,0,0-.644L71.44,59.079A30.665,30.665,0,0,0,73.9,53.141h6.943a.456.456,0,0,0,.456-.456V36.113A.456.456,0,0,0,80.842,35.658ZM80.386,52.23h-6.83a.455.455,0,0,0-.438.331,29.734,29.734,0,0,1-2.639,6.375.457.457,0,0,0,.076.545l4.829,4.829L64.309,75.384,59.48,70.553a.457.457,0,0,0-.545-.076,29.579,29.579,0,0,1-6.374,2.639.456.456,0,0,0-.331.438v6.831H36.569V73.557a.455.455,0,0,0-.331-.438,29.69,29.69,0,0,1-6.377-2.64.457.457,0,0,0-.545.076l-4.831,4.831L13.415,64.309l4.829-4.829a.457.457,0,0,0,.076-.545,29.684,29.684,0,0,1-2.64-6.374.455.455,0,0,0-.438-.331H8.411V36.569h6.829a.455.455,0,0,0,.438-.332,29.755,29.755,0,0,1,2.64-6.377.455.455,0,0,0-.076-.544l-4.829-4.83L24.487,13.415l4.83,4.829a.456.456,0,0,0,.544.076,29.708,29.708,0,0,1,6.377-2.64.456.456,0,0,0,.332-.438V8.411H52.229v6.83a.455.455,0,0,0,.331.438,29.691,29.691,0,0,1,6.375,2.64.458.458,0,0,0,.545-.076l4.83-4.829L75.383,24.488l-4.83,4.831a.455.455,0,0,0-.076.544,29.765,29.765,0,0,1,2.639,6.377.456.456,0,0,0,.438.331h6.831Z" transform="translate(-7.5 -7.5)" fill="#022abd"/>
  <path id="Path_64" data-name="Path 64" d="M57.775,35.9,41.383,49.5l-5.691-5.942a.456.456,0,0,0-.32-.14.443.443,0,0,0-.324.127L31.1,47.323a.455.455,0,0,0-.015.644l9.5,9.923a.456.456,0,0,0,.62.036L61.846,40.815a.455.455,0,0,0,.06-.641l-3.489-4.207A.453.453,0,0,0,57.775,35.9Zm-16.82,21.05-8.9-9.288,3.29-3.151,5.669,5.919a.455.455,0,0,0,.62.036L58.006,36.9,60.914,40.4Z" transform="translate(-9.586 -10.016)" fill="#022abd"/>
</svg>
